<?xml version="1.0" standalone="no"?>
<!DOCTYPE svg PUBLIC "-//W3C//DTD SVG 20010904//EN"
 "http://www.w3.org/TR/2001/REC-SVG-20010904/DTD/svg10.dtd">
<svg version="1.0" xmlns="http://www.w3.org/2000/svg"
 width="1500.000000pt" height="1500.000000pt" viewBox="0 0 1500.000000 1500.000000"
 preserveAspectRatio="xMidYMid meet">

<g transform="translate(0.000000,1500.000000) scale(0.100000,-0.100000)"
fill="#000000" stroke="none">
<path d="M8734 11808 c-3 -4 -23 -8 -44 -8 -21 0 -42 -4 -45 -10 -3 -5 -21
-10 -40 -10 -19 0 -37 5 -40 10 -11 18 -56 10 -81 -15 -29 -29 -37 -31 -54
-10 -18 21 -40 19 -94 -10 -41 -22 -60 -25 -142 -25 -56 0 -94 -4 -94 -10 0
-5 -8 -10 -18 -10 -10 0 -23 -5 -30 -12 -9 -9 -15 -9 -24 0 -18 18 -40 15 -92
-13 -26 -14 -56 -25 -66 -25 -11 0 -36 -16 -56 -35 -27 -26 -44 -35 -70 -35
-21 0 -43 -8 -56 -20 -12 -11 -31 -20 -42 -20 -12 0 -30 -7 -40 -15 -11 -8
-30 -15 -42 -15 -13 0 -26 -4 -29 -10 -3 -5 -21 -10 -39 -10 -32 0 -110 -32
-121 -49 -9 -15 -66 -41 -90 -41 -13 0 -28 -7 -35 -15 -7 -8 -18 -15 -25 -15
-6 0 -19 -8 -29 -18 -9 -11 -35 -25 -59 -32 -109 -34 -164 -73 -152 -109 6
-20 2 -21 -49 -21 -42 0 -56 -4 -56 -14 0 -28 -50 -76 -79 -76 -16 0 -37 -10
-51 -25 -13 -14 -30 -25 -38 -25 -19 0 -72 -55 -72 -75 0 -8 -9 -15 -19 -15
-12 0 -22 -9 -26 -22 -7 -25 -83 -98 -101 -98 -6 0 -19 -9 -29 -20 -12 -13
-31 -20 -55 -20 -36 0 -75 -29 -104 -78 -37 -64 -70 -104 -90 -112 -13 -5 -27
-14 -31 -20 -20 -33 -152 -53 -195 -30 -14 8 -25 7 -40 -2 -16 -10 -26 -10
-52 4 -18 9 -51 19 -73 23 -73 11 -100 25 -134 70 -35 47 -40 49 -108 45 -39
-2 -44 1 -64 34 -14 24 -28 36 -43 36 -13 0 -31 9 -42 21 -13 15 -26 19 -46
15 -33 -7 -70 6 -100 34 -12 11 -31 20 -43 20 -12 0 -30 9 -40 20 -10 11 -27
22 -39 26 -11 3 -30 14 -41 23 -11 10 -42 26 -70 36 -27 10 -60 27 -72 37 -16
15 -29 18 -51 14 -20 -5 -33 -2 -41 8 -18 21 -69 46 -95 46 -38 0 -119 37
-127 57 -15 42 -57 63 -124 63 -46 0 -77 7 -117 25 -29 14 -65 25 -79 25 -26
0 -59 27 -59 48 0 15 -13 15 -27 1 -9 -9 -21 -7 -49 6 -40 19 -161 22 -193 6
-39 -21 -111 2 -111 35 0 16 -55 20 -65 4 -11 -17 -61 -11 -80 10 -25 27 -95
28 -120 0 -13 -15 -22 -17 -36 -10 -24 13 -189 13 -189 0 0 -5 -8 -10 -17 -10
-10 -1 -36 -13 -58 -28 -37 -26 -40 -32 -43 -80 -2 -29 -5 -52 -8 -52 -2 0
-13 6 -25 13 -18 11 -24 8 -55 -25 -23 -26 -34 -47 -34 -68 0 -17 -6 -39 -12
-50 -11 -17 -8 -24 25 -58 34 -35 37 -42 37 -98 0 -33 -5 -65 -11 -71 -8 -8
-8 -13 0 -17 6 -4 11 -34 11 -68 0 -51 3 -61 20 -65 15 -4 50 -52 50 -69 0 -1
-15 -4 -32 -6 -25 -2 -33 -8 -33 -23 0 -12 8 -21 20 -24 23 -4 44 -29 45 -54
0 -9 11 -35 25 -57 16 -26 25 -54 25 -80 0 -52 13 -76 45 -84 22 -6 25 -11 25
-56 0 -27 5 -52 11 -56 6 -4 8 -20 4 -40 -5 -27 -3 -34 10 -34 8 0 19 -10 24
-23 5 -13 16 -29 25 -36 9 -7 16 -19 16 -26 0 -7 7 -18 15 -25 8 -7 15 -25 15
-41 0 -15 5 -31 10 -34 6 -3 10 -21 10 -39 0 -33 23 -91 41 -101 5 -4 9 -24 9
-45 0 -21 5 -42 10 -45 13 -8 13 -58 -1 -72 -8 -8 -8 -13 0 -17 6 -4 11 -22
11 -40 0 -19 7 -47 15 -62 20 -38 20 -144 0 -170 -8 -10 -15 -31 -15 -46 0
-15 -4 -30 -10 -33 -13 -8 -13 -62 0 -70 6 -3 10 -18 10 -33 0 -19 11 -36 35
-56 32 -27 35 -34 35 -82 0 -34 5 -56 15 -64 23 -19 18 -65 -10 -98 l-24 -29
24 -23 c36 -34 32 -72 -10 -119 -35 -39 -44 -64 -25 -76 12 -8 13 -102 1 -109
-5 -3 -12 -22 -15 -41 -4 -19 -11 -35 -16 -35 -6 0 -10 -13 -10 -28 0 -17 -10
-38 -25 -52 -14 -13 -25 -33 -25 -45 0 -28 -45 -117 -70 -140 -11 -10 -20 -26
-20 -37 0 -10 -4 -18 -10 -18 -5 0 -10 -11 -10 -25 0 -25 -96 -135 -118 -135
-7 0 -30 -11 -52 -25 -22 -14 -43 -25 -47 -25 -4 0 -27 -19 -50 -42 -42 -41
-43 -43 -43 -110 l0 -67 -55 -52 c-30 -28 -57 -61 -61 -73 -4 -11 -22 -34 -40
-50 -19 -16 -34 -36 -34 -45 0 -10 -16 -32 -35 -51 -27 -26 -35 -42 -35 -68 0
-20 -7 -41 -18 -51 -9 -9 -27 -36 -39 -61 -12 -25 -38 -61 -57 -80 -37 -35
-76 -100 -76 -125 0 -8 -9 -30 -20 -50 -11 -20 -20 -51 -20 -69 0 -18 -7 -39
-15 -46 -8 -7 -15 -18 -15 -24 0 -7 -16 -27 -35 -46 -19 -19 -35 -43 -35 -55
0 -23 -46 -121 -61 -131 -5 -3 -9 -30 -9 -60 0 -47 -2 -54 -20 -54 -17 0 -20
-7 -20 -43 0 -24 -7 -52 -15 -63 -8 -10 -15 -34 -15 -53 0 -19 -10 -45 -22
-62 -59 -75 -68 -88 -68 -101 0 -8 5 -19 11 -25 8 -8 8 -13 0 -17 -14 -9 -15
-113 -1 -121 18 -11 10 -57 -15 -87 -28 -33 -32 -65 -10 -94 8 -10 14 -32 14
-49 0 -16 -6 -39 -14 -49 -9 -12 -15 -42 -15 -77 0 -32 -5 -61 -10 -64 -5 -3
-10 -23 -10 -44 0 -27 -7 -44 -25 -61 -28 -27 -33 -66 -10 -96 8 -10 15 -27
15 -37 0 -9 6 -26 12 -37 10 -16 10 -24 0 -40 -6 -11 -12 -44 -12 -73 0 -44
-4 -58 -25 -77 -18 -17 -25 -34 -25 -61 0 -21 -4 -41 -10 -44 -17 -11 -11 -42
10 -48 21 -5 28 -41 10 -52 -5 -3 -10 -17 -10 -29 0 -13 -7 -29 -15 -36 -22
-19 -18 -37 10 -44 22 -6 25 -12 25 -47 0 -32 -4 -42 -20 -46 -25 -7 -25 -15
0 -38 21 -19 27 -69 10 -80 -5 -3 -10 -28 -10 -54 0 -26 -5 -52 -12 -59 -9 -9
-7 -17 10 -35 31 -33 29 -57 -6 -57 -27 0 -62 -26 -62 -45 0 -5 -10 -19 -22
-32 -19 -21 -21 -27 -9 -45 11 -18 9 -24 -23 -57 -20 -20 -36 -42 -36 -47 0
-16 -71 -85 -97 -95 -13 -5 -23 -15 -23 -22 0 -7 -11 -24 -25 -37 -14 -13 -25
-32 -25 -42 0 -10 -4 -18 -9 -18 -5 0 -11 -10 -13 -22 -2 -13 -11 -24 -22 -26
-24 -5 -46 -26 -46 -44 0 -7 -20 -32 -44 -55 -25 -24 -58 -71 -75 -105 -19
-41 -53 -86 -95 -128 -37 -35 -66 -72 -66 -81 0 -30 -12 -49 -30 -49 -26 0
-46 -28 -32 -42 19 -19 14 -38 -13 -48 -14 -5 -25 -15 -25 -21 0 -6 -11 -24
-25 -41 -21 -25 -25 -40 -25 -99 0 -51 -4 -69 -13 -69 -26 0 -57 -45 -57 -83
0 -20 -4 -37 -10 -37 -6 0 -10 -34 -10 -82 0 -62 -4 -86 -17 -100 -16 -18 -15
-22 13 -76 20 -38 45 -67 74 -86 23 -16 45 -37 48 -48 2 -10 13 -18 26 -18 12
0 31 -7 42 -15 10 -8 27 -15 37 -15 10 0 20 -8 24 -17 11 -31 35 -53 58 -53
12 0 34 -9 48 -20 28 -23 57 -26 75 -8 9 9 18 9 37 0 42 -19 56 -16 49 12 -5
21 0 28 35 45 22 12 47 21 55 21 7 0 34 11 57 25 24 14 54 25 66 25 12 0 25 5
28 10 3 6 21 10 39 10 49 0 89 24 110 67 26 49 65 93 85 93 13 1 58 49 89 96
9 14 71 44 90 44 8 0 27 11 44 25 16 14 36 25 43 25 16 0 65 56 65 76 0 8 7
14 15 14 18 0 52 18 82 43 14 12 29 17 42 12 15 -5 21 -2 21 10 0 8 10 19 23
24 12 5 35 23 51 40 23 24 32 28 43 19 10 -8 17 -8 25 0 30 30 98 0 98 -41 0
-12 9 -17 28 -17 19 0 39 -11 62 -35 19 -19 42 -35 52 -35 11 0 18 -7 18 -18
0 -26 31 -52 61 -52 15 0 38 -14 59 -35 19 -19 39 -35 45 -35 18 0 71 -29 85
-45 7 -9 28 -23 46 -31 19 -9 34 -24 34 -34 0 -21 31 -50 53 -50 12 0 17 -9
17 -28 0 -17 9 -37 21 -48 12 -10 25 -29 30 -41 7 -19 16 -23 48 -23 22 0 43
-4 46 -10 3 -5 19 -10 35 -10 15 0 30 -3 32 -7 5 -13 71 -41 113 -48 116 -21
282 -10 315 20 10 9 32 17 49 17 26 1 30 4 26 20 -5 13 -1 18 13 18 11 0 33
16 49 35 17 19 38 35 47 35 19 0 20 5 6 30 -9 16 -4 27 25 58 19 22 35 49 35
60 0 12 11 32 25 46 25 25 36 86 15 86 -14 0 -13 26 2 50 10 16 9 25 -5 49 -9
16 -17 40 -17 53 0 13 -9 34 -20 46 -11 12 -20 32 -20 46 0 14 -4 28 -10 31
-5 3 -10 19 -10 34 0 16 -7 34 -15 41 -8 7 -15 22 -15 35 0 12 -9 30 -20 40
-11 10 -20 24 -20 32 0 7 -10 18 -22 24 -70 31 -98 65 -98 119 0 33 -23 80
-50 105 -11 10 -20 30 -20 44 0 16 -14 39 -37 63 -34 35 -36 40 -24 60 10 16
10 23 2 26 -6 2 -11 21 -11 42 0 21 -4 42 -10 45 -5 3 -10 32 -10 64 0 35 -6
65 -15 77 -8 11 -15 41 -15 71 0 28 -4 55 -10 58 -6 3 -10 26 -10 50 0 26 -8
59 -20 80 -11 20 -20 38 -20 40 0 12 35 4 52 -12 10 -9 20 -14 23 -12 5 5 15
61 19 105 2 17 6 36 9 41 4 6 -2 21 -12 34 -18 23 -18 25 3 70 11 25 31 58 44
73 12 16 22 34 22 40 0 6 9 17 20 24 11 6 20 22 19 35 0 68 35 167 61 167 6 0
10 7 10 15 0 8 18 29 40 46 22 18 40 37 40 42 0 5 25 38 55 72 30 35 55 68 55
74 0 25 51 91 70 91 10 0 22 4 25 10 3 5 23 17 43 26 56 26 92 63 92 96 0 15
4 28 10 28 16 0 108 69 114 86 5 12 13 14 33 10 20 -6 33 -1 57 22 17 16 45
34 61 39 17 6 52 24 79 42 28 17 57 31 65 31 9 0 27 6 41 13 32 16 178 62 252
78 31 6 59 18 62 24 2 7 19 20 37 29 31 15 34 15 55 -5 12 -12 28 -18 34 -14
20 12 112 36 175 45 132 19 191 40 181 66 -4 9 4 19 19 26 31 14 43 4 27 -22
-10 -16 -10 -20 2 -20 8 0 18 5 21 10 3 6 24 10 45 10 21 0 41 4 44 9 3 4 40
11 82 14 50 5 88 14 109 27 18 11 50 20 71 20 25 0 51 9 76 26 l37 26 26 -20
c21 -16 32 -19 51 -12 27 11 108 4 140 -12 12 -6 50 -7 90 -3 141 13 328 16
349 6 11 -6 71 -15 134 -21 63 -6 118 -13 122 -16 5 -2 24 2 43 10 34 14 37
14 65 -10 16 -13 34 -24 40 -24 5 0 15 -9 21 -20 14 -27 62 -50 88 -43 17 4
22 0 27 -23 12 -52 13 -54 55 -54 39 0 131 -38 144 -59 4 -5 -1 -16 -9 -24 -8
-9 -15 -22 -15 -31 0 -8 -5 -18 -10 -21 -6 -3 -19 -25 -29 -48 -24 -51 -67
-94 -101 -99 -19 -2 -26 -10 -28 -32 -2 -18 -11 -30 -23 -33 -12 -3 -19 -14
-19 -28 0 -12 -7 -28 -15 -35 -8 -7 -15 -25 -15 -41 0 -16 -5 -29 -12 -29 -7
0 -28 -13 -45 -29 -26 -23 -33 -36 -33 -66 0 -42 -30 -74 -68 -75 -14 0 -26
-7 -29 -18 -2 -10 -17 -23 -32 -30 -34 -15 -61 -74 -61 -135 0 -33 -10 -64
-35 -113 -34 -65 -35 -69 -21 -99 8 -17 24 -39 36 -50 11 -10 20 -26 20 -36 0
-22 37 -49 66 -49 13 0 24 -8 27 -20 4 -15 14 -20 37 -20 17 0 51 -11 76 -25
25 -14 56 -25 69 -25 13 0 27 -4 30 -10 3 -5 34 -10 67 -10 40 0 67 -5 78 -15
12 -11 51 -15 180 -16 151 -1 167 -3 187 -21 20 -19 26 -19 55 -8 18 7 43 22
56 33 l22 21 31 -23 c20 -15 36 -20 47 -15 9 4 29 8 44 9 16 2 39 10 53 19 16
11 47 16 94 16 38 0 73 5 76 10 3 6 35 10 70 10 35 0 67 5 70 10 3 6 21 10 40
10 21 0 44 9 63 25 17 14 41 25 54 25 14 0 35 11 48 25 24 26 83 35 95 15 10
-16 23 -12 30 10 5 17 15 20 60 20 30 0 57 5 60 10 3 6 28 10 54 10 38 0 52 5
71 25 17 18 34 25 60 25 28 0 44 8 70 35 23 23 43 35 61 35 15 0 31 5 34 10 3
5 28 10 55 10 44 0 52 4 93 45 29 28 51 43 61 39 19 -7 116 37 116 54 0 7 10
16 23 21 12 5 31 18 41 30 11 11 25 21 33 21 8 0 26 11 41 25 15 14 32 25 38
25 6 0 19 9 28 19 10 11 30 21 44 23 14 2 30 12 36 23 14 25 58 65 72 65 17 0
44 34 44 56 0 11 7 29 15 40 8 10 15 34 15 53 0 19 8 41 18 50 9 9 26 35 37
58 11 24 25 43 31 43 18 0 54 45 54 68 0 11 5 24 10 27 6 3 10 23 10 43 0 25
8 44 27 64 24 25 26 31 14 50 -9 14 -10 23 -2 31 6 6 11 24 11 39 0 22 6 29
28 34 15 4 42 20 60 36 28 24 41 28 92 28 32 0 62 5 65 10 3 6 20 10 36 10 38
0 69 16 69 35 0 12 14 15 63 15 50 0 68 4 81 19 14 15 34 20 106 23 72 2 93 7
112 24 30 27 116 66 129 58 12 -7 71 20 89 41 7 8 27 15 44 15 31 0 91 25 125
52 34 28 62 38 101 38 42 0 107 27 129 54 8 9 20 16 27 16 20 0 84 43 118 79
26 27 37 31 79 31 53 0 63 8 196 158 18 19 39 32 53 32 14 0 38 14 58 35 19
20 54 47 77 60 22 14 47 38 55 55 7 16 20 30 28 30 9 0 31 16 50 35 19 19 40
35 47 35 8 0 16 8 20 18 8 24 74 92 90 92 7 0 30 16 52 35 21 19 49 35 62 35
30 1 153 113 177 161 9 19 26 36 37 38 28 5 43 19 61 57 10 21 24 34 35 34 12
0 23 10 29 25 5 14 16 25 23 25 22 0 47 34 47 63 0 19 5 27 18 27 25 0 72 51
72 79 0 12 11 33 25 47 18 18 25 36 25 64 0 21 -4 42 -10 45 -5 3 -10 28 -10
54 0 31 -5 53 -15 61 -8 7 -15 24 -15 38 0 13 -8 32 -17 41 -10 9 -23 25 -29
36 -6 11 -20 21 -30 23 -10 2 -29 8 -42 14 -17 9 -25 9 -34 0 -7 -7 -24 -12
-39 -12 -15 0 -32 -7 -39 -14 -17 -22 -78 -40 -93 -28 -8 6 -62 6 -147 1 -166
-11 -158 -11 -251 -2 -42 5 -84 14 -93 22 -11 9 -35 14 -65 12 -34 -2 -51 2
-61 14 -17 20 -83 55 -105 55 -20 0 -53 19 -87 49 -39 34 -38 79 3 126 17 19
36 35 43 35 17 1 56 36 56 52 0 7 15 20 33 28 23 11 33 23 35 43 3 25 7 28 25
22 12 -4 42 -10 67 -12 25 -3 53 -11 64 -18 13 -10 42 -12 107 -8 83 6 91 4
126 -19 42 -29 156 -46 178 -28 7 6 50 13 96 17 74 6 87 10 112 35 16 15 35
28 42 28 16 0 55 50 78 100 16 36 87 80 150 94 15 4 27 12 27 20 0 7 8 20 19
30 10 9 26 36 36 59 25 61 34 80 44 97 5 8 15 29 22 45 7 17 24 43 36 58 13
16 23 35 23 43 0 8 5 14 10 14 6 0 10 9 10 20 0 11 6 20 14 20 7 0 19 7 26 15
10 12 10 18 0 30 -8 9 -10 28 -6 50 3 19 9 52 12 72 4 20 15 53 26 71 16 30
19 51 16 144 -1 60 -6 112 -10 114 -14 9 -9 38 13 83 18 38 19 45 6 58 -11 11
-13 31 -9 82 3 45 1 71 -7 75 -6 4 -11 25 -11 46 0 21 -3 40 -7 42 -11 5 -43
67 -43 84 0 8 -4 22 -9 32 -14 28 -29 65 -36 89 -4 14 -15 23 -32 25 -29 3
-61 47 -62 84 -1 21 -30 54 -47 54 -5 0 -41 32 -79 70 -51 51 -77 70 -96 70
-26 0 -51 21 -62 53 -4 9 -16 17 -28 17 -12 0 -37 11 -55 25 -18 14 -37 25
-41 25 -5 0 -22 14 -38 30 -20 20 -35 28 -47 24 -11 -3 -25 -1 -33 6 -10 8
-18 8 -33 -1 -17 -10 -24 -10 -37 1 -24 20 -240 15 -272 -6 -25 -16 -59 -19
-67 -6 -6 10 -72 9 -82 -1 -4 -4 -27 -7 -51 -7 -24 0 -53 -5 -66 -12 -49 -25
-58 -28 -86 -28 -17 0 -42 -11 -59 -25 -17 -14 -33 -25 -37 -25 -4 0 -20 -11
-37 -25 -16 -14 -40 -25 -53 -25 -13 0 -27 -4 -30 -10 -3 -5 -18 -10 -32 -10
-15 0 -37 -10 -50 -21 -18 -18 -25 -20 -37 -10 -9 7 -18 21 -21 32 -4 10 -15
19 -25 19 -13 0 -27 14 -39 38 -11 21 -31 43 -44 49 -14 7 -28 21 -32 32 -3
11 -15 21 -27 23 -12 2 -26 12 -32 23 -6 11 -17 31 -26 44 -8 13 -22 36 -31
50 -8 14 -26 31 -39 38 -13 6 -48 36 -79 65 -31 30 -69 63 -86 73 -39 24 -105
93 -105 109 0 12 -44 37 -112 65 -16 6 -28 16 -28 23 0 7 -14 27 -31 44 -17
18 -37 43 -43 56 -6 13 -26 28 -44 34 -19 6 -39 21 -45 35 -10 18 -24 26 -62
32 -28 5 -59 17 -71 28 -11 10 -32 19 -46 19 -18 0 -40 14 -70 45 -24 24 -48
45 -54 45 -6 0 -21 11 -34 25 -13 14 -31 25 -41 25 -10 0 -21 5 -24 10 -3 6
-15 10 -26 10 -11 0 -31 7 -44 16 -21 14 -28 14 -41 3 -13 -10 -17 -10 -25 2
-5 8 -9 16 -9 19 0 3 -15 11 -32 18 -18 8 -45 20 -60 28 -14 8 -33 14 -41 14
-8 0 -41 14 -72 30 -31 17 -65 30 -74 30 -9 0 -26 7 -37 15 -10 8 -29 15 -40
15 -12 0 -52 16 -90 35 -37 19 -82 35 -99 35 -19 0 -39 8 -50 20 -10 11 -28
20 -39 20 -12 0 -31 7 -44 15 -17 12 -26 13 -42 5 -17 -9 -22 -7 -29 11 -5 15
-10 18 -15 11 -9 -15 -56 -16 -56 -2 0 7 -6 7 -18 1 -13 -7 -22 -7 -29 0 -8 8
-13 7 -17 0 -4 -6 -27 -11 -52 -11 -25 0 -55 -5 -66 -11 -14 -8 -23 -8 -31 0
-6 6 -27 11 -47 11 -24 0 -43 7 -55 20 -10 11 -26 20 -35 20 -9 0 -25 -9 -35
-20 -10 -11 -21 -20 -25 -20 -4 0 -10 9 -13 20 -4 17 -14 20 -56 20 -38 0 -58
-5 -73 -20 -23 -21 -72 -27 -83 -10 -8 14 -112 13 -117 -1 -2 -7 -17 -4 -41
10 -29 16 -52 20 -112 19 -42 -1 -78 -5 -81 -10z m667 -658 c10 -6 19 -15 19
-20 0 -16 -57 -12 -63 4 -10 26 11 33 44 16z m274 -33 c22 0 54 4 70 7 21 5
37 1 54 -12 34 -27 19 -42 -43 -42 -28 0 -57 -5 -64 -12 -9 -9 -18 -9 -37 0
-14 7 -38 12 -53 12 -41 0 -56 19 -35 42 13 14 24 17 43 11 14 -4 43 -7 65 -6z
m464 -49 c34 -16 60 -21 110 -19 67 2 94 -6 216 -65 28 -13 64 -24 82 -24 17
0 35 -4 38 -10 3 -5 19 -10 34 -10 16 0 34 -7 41 -15 9 -11 33 -15 92 -15 65
0 83 -3 100 -20 12 -11 29 -20 39 -20 9 0 19 -7 23 -15 3 -8 15 -15 26 -15 23
0 29 -37 6 -46 -19 -7 -117 25 -142 47 -22 21 -49 25 -59 9 -3 -5 -46 -10 -95
-10 -68 0 -89 3 -93 15 -8 20 -85 55 -122 55 -21 0 -40 9 -55 25 -20 22 -32
25 -86 25 -35 0 -66 5 -69 10 -3 6 -40 10 -81 10 -43 0 -74 4 -74 10 0 6 -16
10 -35 10 -30 0 -35 3 -35 23 0 17 9 27 35 37 19 8 35 17 35 22 0 13 21 9 69
-14z m-242 6 c-3 -3 -12 -4 -19 -1 -8 3 -5 6 6 6 11 1 17 -2 13 -5z m-2367
-184 c0 -5 -7 -10 -15 -10 -8 0 -15 5 -15 10 0 6 7 10 15 10 8 0 15 -4 15 -10z
m3650 -324 c0 -9 -30 -14 -35 -6 -4 6 3 10 14 10 12 0 21 -2 21 -4z m2100
-426 c9 -17 8 -20 -10 -20 -28 0 -100 23 -100 32 0 5 22 8 50 8 39 0 52 -4 60
-20z m-2290 -165 c0 -8 -4 -15 -10 -15 -5 0 -10 7 -10 15 0 8 5 15 10 15 6 0
10 -7 10 -15z m-282 -22 c3 -19 10 -23 38 -23 27 0 34 -4 34 -19 0 -15 8 -21
33 -23 29 -3 32 -6 35 -40 3 -35 1 -38 -22 -38 -14 0 -28 -4 -31 -10 -3 -5
-38 -10 -76 -10 -57 0 -74 -4 -92 -21 -12 -11 -34 -23 -49 -26 -16 -3 -28 -10
-28 -15 0 -5 -26 -8 -57 -6 -53 3 -58 5 -61 27 -5 30 40 71 78 71 33 0 60 35
60 77 0 37 8 48 50 66 49 22 84 18 88 -10z m-311 -36 c4 -8 16 -16 26 -20 18
-7 24 -47 7 -47 -5 0 -10 -6 -10 -14 0 -8 -12 -24 -27 -35 -50 -37 -63 -54
-63 -82 0 -30 -36 -65 -77 -75 -12 -4 -23 -10 -23 -15 0 -5 -13 -9 -29 -9 -46
0 -48 30 -9 95 18 30 36 55 40 55 5 0 8 8 8 18 0 24 34 89 61 119 25 26 83 32
96 10z m644 -32 c8 -49 6 -52 -26 -35 -17 9 -25 22 -25 40 0 57 42 53 51 -5z
m142 -183 c23 -20 24 -110 1 -119 -18 -7 -34 12 -34 42 0 11 -9 27 -20 35 -12
9 -20 26 -20 42 0 26 2 28 28 22 15 -4 35 -14 45 -22z m-1003 -111 c0 -13 -74
-69 -86 -64 -37 14 -16 63 27 63 10 0 20 4 24 10 6 9 35 3 35 -9z m333 -51
c-2 -15 -23 -102 -41 -170 -5 -19 -18 -57 -29 -85 -28 -70 -43 -118 -43 -141
0 -10 -7 -37 -15 -59 -8 -23 -14 -78 -15 -127 0 -72 5 -100 27 -155 14 -38 35
-80 45 -95 10 -14 18 -36 18 -48 0 -33 16 -56 50 -70 22 -9 38 -27 53 -59 25
-54 35 -63 58 -51 44 24 113 40 185 43 64 2 80 6 82 20 2 9 12 19 23 22 10 4
19 11 19 18 0 6 10 21 21 33 26 28 36 44 88 151 51 104 68 156 82 245 13 82
24 118 38 118 10 0 25 -56 23 -86 -1 -12 4 -27 12 -33 10 -8 13 -23 9 -46 -6
-36 15 -92 42 -115 18 -15 20 -71 3 -88 -8 -8 -9 -18 -1 -34 26 -55 35 -105
24 -126 -6 -11 -11 -34 -11 -51 0 -16 -4 -33 -10 -36 -5 -3 -10 -40 -10 -81 0
-68 -4 -82 -40 -151 -23 -45 -40 -91 -40 -111 0 -40 -28 -98 -64 -131 -14 -14
-26 -29 -26 -34 0 -5 -17 -29 -37 -52 -21 -24 -46 -55 -56 -69 -26 -37 -79
-56 -159 -56 -43 0 -80 -6 -100 -16 -22 -11 -46 -14 -87 -10 -31 3 -69 6 -86
6 -34 0 -86 22 -105 45 -7 8 -20 15 -29 15 -9 0 -29 7 -45 15 -15 8 -35 15
-44 15 -19 0 -52 29 -52 45 0 7 -9 20 -21 31 -11 10 -29 39 -41 65 -11 26 -28
55 -39 65 -11 10 -19 30 -19 49 0 40 -20 83 -42 91 -10 3 -21 17 -24 32 -7 31
-42 72 -60 72 -30 0 -37 -29 -26 -110 9 -60 23 -103 62 -182 28 -57 60 -112
71 -124 10 -11 19 -28 19 -37 0 -26 -33 -21 -61 9 -26 28 -93 64 -120 64 -9 0
-21 6 -27 13 -15 19 -25 94 -13 102 22 13 11 59 -21 93 -31 31 -33 39 -40 125
-10 119 -10 116 -2 159 4 24 -1 55 -15 95 -20 56 -24 162 -8 203 7 18 17 112
17 158 0 19 4 41 9 50 6 10 6 23 0 33 -6 12 -2 25 12 44 17 21 20 36 17 70 -4
34 -1 48 12 60 9 9 25 34 35 56 27 59 54 61 113 8 27 -24 56 -48 65 -54 16 -9
16 -13 -3 -63 -12 -32 -18 -63 -14 -78 5 -19 0 -32 -22 -55 -24 -25 -29 -40
-32 -87 -2 -31 -6 -83 -9 -114 -2 -31 0 -65 5 -74 11 -19 3 -39 -35 -87 -25
-31 -29 -67 -11 -100 6 -12 12 -37 14 -56 3 -38 25 -61 60 -61 24 0 34 17 34
61 0 17 5 39 11 51 8 14 7 28 -2 51 -8 19 -12 70 -11 139 2 103 4 114 36 176
18 37 39 79 45 95 6 15 17 27 26 27 12 0 15 13 15 58 1 31 7 68 15 82 8 14 14
35 15 47 0 12 16 52 35 90 19 37 35 76 35 86 0 11 8 21 18 24 10 2 27 21 38
41 42 79 134 153 127 102z m615 -101 c3 -48 31 -118 56 -138 20 -17 20 -45 0
-76 -29 -44 -54 -27 -54 35 0 16 -4 39 -9 52 -5 13 -17 51 -26 85 -15 52 -16
65 -5 78 21 25 35 12 38 -36z m-1098 -11 c0 -7 -4 -19 -9 -26 -7 -11 -10 -10
-15 3 -3 9 -4 21 0 26 8 13 24 11 24 -3z m260 5 c0 -14 -64 -73 -80 -73 -21 0
-40 19 -40 40 0 10 14 20 38 27 45 13 82 15 82 6z m523 -50 c-7 -2 -19 -2 -25
0 -7 3 -2 5 12 5 14 0 19 -2 13 -5z m-620 -1529 c27 -10 20 -26 -10 -22 -18 2
-29 10 -31 22 -3 12 0 16 10 12 7 -3 21 -9 31 -12z m-1846 -1146 c-3 -8 -6 -5
-6 6 -1 11 2 17 5 13 3 -3 4 -12 1 -19z m33 -104 c0 -36 -4 -64 -10 -64 -6 0
-10 30 -10 71 0 44 4 68 10 64 6 -3 10 -35 10 -71z m1476 -31 c-10 -10 -19 5
-10 18 6 11 8 11 12 0 2 -7 1 -15 -2 -18z m-1456 -377 c0 -58 -4 -72 -25 -98
-25 -30 -32 -71 -16 -97 5 -7 4 -25 -3 -42 -8 -22 -8 -34 2 -49 19 -31 16
-199 -5 -222 -9 -10 -22 -18 -28 -18 -15 0 -25 -22 -25 -57 0 -16 -14 -38 -39
-61 -31 -30 -40 -47 -46 -87 -4 -27 -13 -58 -21 -69 -8 -11 -14 -44 -14 -73 0
-47 -3 -53 -30 -70 -35 -20 -48 -57 -31 -84 6 -10 11 -28 11 -39 0 -10 10 -24
21 -31 17 -9 19 -13 8 -20 -8 -5 -25 -9 -40 -9 -14 0 -30 -5 -35 -10 -6 -6
-44 -10 -90 -8 -78 3 -79 3 -76 28 1 14 17 41 35 60 40 43 67 91 67 118 0 12
5 24 10 27 6 3 10 17 10 30 0 13 4 26 9 29 5 3 12 21 15 39 4 21 22 49 51 76
43 41 45 45 45 101 0 32 4 62 10 65 26 16 43 77 37 133 -6 54 -4 59 24 88 26
27 29 35 20 53 -10 17 -8 25 9 43 15 16 19 30 15 50 -7 29 6 60 38 95 17 20
19 32 14 96 -7 98 20 150 55 104 13 -16 18 -41 18 -91z m1320 -454 c0 -5 -9
-17 -19 -26 -22 -20 -40 -4 -21 19 13 16 40 20 40 7z m-5924 -1623 c3 -6 1
-16 -5 -22 -9 -9 -14 -8 -21 3 -5 8 -10 18 -10 23 0 11 28 8 36 -4z m-326
-1125 c0 -16 -16 -19 -25 -4 -8 13 4 32 16 25 5 -4 9 -13 9 -21z"/>
<path d="M6573 5953 c-19 -7 -16 -30 4 -37 9 -4 40 -2 67 5 76 17 78 18 71 29
-6 10 -119 13 -142 3z"/>
</g>
</svg>
