<?xml version="1.0" standalone="no"?>
<!DOCTYPE svg PUBLIC "-//W3C//DTD SVG 20010904//EN"
 "http://www.w3.org/TR/2001/REC-SVG-20010904/DTD/svg10.dtd">
<svg version="1.0" xmlns="http://www.w3.org/2000/svg"
 width="1024.000000pt" height="1024.000000pt" viewBox="0 0 1024.000000 1024.000000"
 preserveAspectRatio="xMidYMid meet">

<g transform="translate(0.000000,1024.000000) scale(0.100000,-0.100000)"
fill="#E7FF68" stroke="none">
<path d="M5685 6689 c-224 -22 -502 -89 -713 -170 -139 -53 -184 -54 -347 -4
-167 51 -248 65 -389 65 -177 0 -311 -41 -345 -104 -23 -42 -8 -68 65 -110
143 -82 210 -175 205 -284 -1 -16 -45 -69 -134 -160 -196 -203 -300 -346 -412
-571 -135 -270 -195 -544 -195 -885 0 -215 -2 -223 -80 -311 -126 -144 -180
-263 -188 -416 -5 -100 9 -189 32 -208 10 -8 21 1 44 38 37 60 98 106 194 146
70 29 151 93 176 140 10 18 11 18 49 -7 56 -39 84 -47 198 -57 87 -8 114 -14
161 -40 32 -17 61 -31 65 -31 18 0 20 71 4 127 -22 76 -57 136 -119 201 -52
55 -158 138 -212 165 l-32 16 -24 -37 c-14 -20 -35 -54 -47 -74 -13 -21 -25
-38 -28 -38 -3 0 -3 27 0 59 7 78 55 168 121 228 65 59 222 134 346 167 127
33 231 50 500 81 124 14 259 31 300 38 l75 12 5 115 c5 101 9 123 36 180 17
36 50 84 73 107 45 45 131 93 167 93 18 0 13 -9 -37 -61 -36 -37 -73 -90 -96
-135 l-36 -74 -8 -179 c-4 -108 -14 -205 -24 -246 -9 -36 -15 -68 -13 -71 11
-10 139 39 194 74 77 50 183 164 228 244 64 115 92 208 126 416 14 83 30 93
54 32 22 -56 20 -169 -4 -264 -12 -43 -19 -80 -17 -83 8 -7 155 56 300 128
173 86 318 181 497 324 184 146 196 154 383 245 112 54 173 89 191 111 15 17
25 34 22 36 -3 3 -35 -3 -73 -12 -90 -23 -172 -15 -232 23 -74 45 -67 55 35
47 161 -12 288 25 325 95 42 78 13 157 -68 184 -125 44 -133 51 -195 174 -32
63 -77 141 -101 175 -119 167 -309 283 -543 332 -94 20 -332 27 -459 14z m485
-330 c184 -29 320 -167 350 -352 28 -177 -72 -362 -237 -440 -85 -39 -207 -49
-295 -23 -128 37 -239 146 -278 274 -74 240 67 485 310 538 71 16 73 16 150 3z"/>
<path d="M6010 6201 c-108 -38 -191 -169 -176 -277 31 -229 282 -331 450 -183
58 51 87 106 93 178 18 203 -173 351 -367 282z m241 -91 c29 -16 26 -75 -6
-96 -55 -36 -117 25 -81 80 18 28 52 34 87 16z"/>
<path d="M5940 4838 c-19 -12 -93 -45 -164 -74 l-130 -53 2 -108 c1 -59 -2
-126 -7 -148 -6 -22 -8 -42 -5 -44 11 -11 116 54 167 103 71 68 115 134 154
231 32 79 40 115 26 115 -5 0 -24 -10 -43 -22z"/>
</g>
</svg>
