<?xml version="1.0" standalone="no"?>
<!DOCTYPE svg PUBLIC "-//W3C//DTD SVG 20010904//EN"
 "http://www.w3.org/TR/2001/REC-SVG-20010904/DTD/svg10.dtd">
<svg version="1.0" xmlns="http://www.w3.org/2000/svg"
 width="844.000000pt" height="748.000000pt" viewBox="0 0 844.000000 748.000000"
 preserveAspectRatio="xMidYMid meet">

<g transform="translate(0.000000,748.000000) scale(0.100000,-0.100000)"
fill="#E7FF68" stroke="none">
<path d="M5310 6394 c-19 -2 -84 -9 -145 -15 -395 -39 -830 -150 -1255 -319
-95 -38 -193 -32 -385 25 -362 108 -455 125 -682 125 -166 0 -263 -13 -387
-52 -155 -49 -242 -152 -191 -225 9 -12 54 -43 101 -69 211 -115 332 -257 349
-411 10 -84 -6 -111 -131 -228 -319 -297 -594 -669 -780 -1055 -96 -198 -183
-450 -230 -665 -57 -262 -74 -438 -74 -772 0 -353 3 -341 -128 -490 -112 -128
-162 -200 -213 -307 -77 -165 -99 -259 -99 -431 0 -86 5 -151 16 -190 15 -61
38 -105 53 -105 5 0 27 28 49 62 47 72 118 144 177 180 22 13 85 44 140 68
165 71 231 122 286 219 12 23 27 41 32 41 5 0 27 -15 50 -34 77 -62 140 -83
272 -91 193 -13 267 -32 363 -93 30 -18 60 -31 67 -28 37 14 30 150 -12 261
-69 183 -186 316 -419 478 -45 32 -98 64 -117 72 l-36 15 -34 -43 c-19 -23
-53 -77 -76 -120 -23 -42 -47 -77 -52 -77 -14 0 -10 120 6 173 98 324 434 528
1040 632 126 21 287 43 455 60 369 38 676 81 686 97 3 5 7 78 8 161 3 135 6
161 30 232 47 139 116 240 212 313 74 56 222 117 241 98 3 -3 -35 -48 -85
-101 -190 -199 -227 -305 -236 -675 -5 -222 -15 -310 -50 -425 -9 -27 -16 -52
-16 -54 0 -7 76 11 135 31 149 52 269 131 393 263 95 100 146 175 213 312 73
150 112 282 148 503 18 107 37 199 42 205 17 17 43 -9 67 -66 21 -50 22 -66
19 -199 -4 -125 -8 -159 -35 -250 -17 -57 -28 -108 -26 -111 9 -16 277 97 506
212 302 153 481 272 828 548 278 223 323 251 630 393 63 30 139 66 168 81 61
32 152 116 152 140 0 9 -1 17 -2 17 -2 0 -25 -7 -53 -16 -194 -61 -394 -41
-493 50 -59 53 -59 53 171 52 181 -1 221 2 271 18 146 46 211 113 223 231 7
65 -20 131 -69 168 -19 15 -76 40 -128 57 -115 37 -161 67 -200 131 -16 27
-30 52 -30 54 0 3 -25 58 -55 122 -77 163 -153 271 -275 394 -215 216 -479
347 -816 405 -85 14 -502 28 -584 18z m673 -544 c85 -12 196 -51 267 -93 77
-45 199 -170 237 -242 17 -33 44 -96 59 -140 23 -70 27 -95 27 -205 -1 -109
-4 -135 -27 -205 -99 -294 -355 -479 -661 -478 -123 1 -203 21 -310 76 -91 48
-201 146 -251 225 -104 162 -139 366 -94 545 36 144 94 242 203 343 150 141
347 203 550 174z"/>
<path d="M5780 5601 c-90 -24 -145 -55 -204 -115 -61 -61 -101 -141 -123 -242
-15 -68 -15 -80 0 -148 44 -206 183 -339 382 -368 97 -13 161 -2 261 46 149
72 244 226 244 396 0 118 -41 220 -123 307 -116 123 -273 167 -437 124z m348
-166 c57 -48 50 -120 -16 -158 -29 -17 -39 -18 -72 -8 -48 14 -70 44 -70 94 0
84 94 126 158 72z"/>
<path d="M5560 3329 c-74 -38 -197 -92 -273 -120 -76 -29 -142 -58 -147 -64
-6 -7 -6 -24 0 -46 15 -51 12 -254 -5 -342 -8 -43 -15 -83 -15 -88 0 -19 38
-8 103 30 130 76 218 157 309 286 74 104 173 335 166 387 -3 25 -3 25 -138
-43z"/>
</g>
</svg>
