<?xml version="1.0" standalone="no"?>
<!DOCTYPE svg PUBLIC "-//W3C//DTD SVG 20010904//EN"
 "http://www.w3.org/TR/2001/REC-SVG-20010904/DTD/svg10.dtd">
<svg version="1.0" xmlns="http://www.w3.org/2000/svg"
 width="1400.000000pt" height="450.000000pt" viewBox="50 530 1400 450"
 preserveAspectRatio="xMidYMid meet">

<g transform="translate(0.000000,1500.000000) scale(0.100000,-0.100000)"
fill="#000000" stroke="none">
<path d="M12330 8827 c-3 -3 -30 -7 -60 -8 -60 -3 -158 -30 -168 -46 -4 -6
-24 -13 -44 -17 -21 -4 -51 -18 -67 -31 -16 -14 -33 -25 -38 -25 -16 0 -195
-182 -233 -235 -19 -28 -47 -63 -62 -80 -16 -16 -31 -41 -34 -55 -3 -14 -14
-43 -24 -65 -10 -22 -22 -58 -25 -80 -4 -22 -16 -55 -26 -73 -10 -18 -19 -45
-19 -61 0 -15 -5 -32 -11 -38 -6 -6 -13 -28 -16 -49 -3 -22 -11 -51 -19 -66
-8 -15 -14 -52 -14 -82 0 -58 34 -300 49 -354 6 -18 13 -66 16 -107 5 -60 4
-76 -7 -80 -11 -5 -14 -26 -12 -93 3 -118 15 -171 52 -224 17 -24 35 -67 41
-94 24 -117 42 -184 69 -264 28 -80 36 -111 48 -185 14 -79 119 -321 164 -375
12 -14 43 -63 70 -109 44 -77 64 -97 134 -138 12 -7 30 -13 41 -13 12 0 26 -5
33 -12 13 -13 200 -16 312 -5 66 6 160 47 212 92 13 11 39 30 58 42 37 23 101
87 139 138 12 17 42 41 68 55 57 32 77 67 137 245 27 77 61 176 76 220 42 121
111 455 120 580 4 61 16 137 25 170 16 55 17 75 6 245 -7 102 -17 208 -22 235
-5 28 -10 77 -10 110 -1 33 -5 65 -10 71 -5 6 -10 19 -12 30 -2 10 -9 29 -16
42 -6 12 -11 30 -10 40 4 29 -13 135 -27 168 -8 18 -26 41 -42 52 -16 12 -47
58 -72 106 -24 47 -49 86 -57 86 -7 0 -13 7 -13 15 0 8 -6 15 -12 15 -7 0 -26
17 -43 36 -77 92 -132 147 -163 161 -18 9 -35 13 -39 10 -6 -7 -60 18 -84 39
-9 8 -27 13 -40 10 -13 -2 -46 5 -74 14 -27 10 -57 18 -65 19 -8 0 -28 3 -45
5 -102 15 -131 17 -135 13z m261 -280 c24 -18 62 -42 84 -54 65 -33 162 -123
245 -227 57 -73 59 -75 64 -127 9 -93 37 -206 62 -252 25 -47 25 -50 19 -180
-8 -147 -8 -204 1 -218 3 -6 7 -79 10 -163 3 -150 3 -155 -23 -207 -30 -61
-33 -119 -9 -188 13 -39 13 -46 -4 -74 -10 -18 -21 -50 -25 -72 -4 -22 -22
-69 -41 -105 -19 -37 -34 -72 -34 -78 0 -7 -9 -29 -20 -49 -13 -24 -20 -57
-20 -89 0 -48 -4 -58 -56 -123 -30 -39 -64 -76 -75 -81 -10 -6 -33 -35 -49
-64 -17 -29 -39 -61 -50 -71 -11 -10 -20 -23 -20 -30 0 -6 -17 -27 -37 -46
-21 -19 -48 -48 -59 -64 l-21 -30 -146 3 c-214 4 -250 24 -344 199 -35 64 -63
121 -63 127 0 18 -37 130 -58 177 -26 57 -60 173 -66 224 -11 88 -34 192 -46
210 -15 21 -20 68 -25 238 -3 97 -10 199 -16 229 -27 145 -32 162 -61 194 -14
16 -20 43 -25 105 -5 77 -2 92 27 179 23 67 48 117 86 169 52 71 54 76 54 138
0 35 6 78 14 96 20 48 98 122 164 153 35 18 80 53 117 91 74 77 117 91 286 92
l116 1 44 -33z"/>
<path d="M8668 8631 c-20 -4 -44 -13 -52 -21 -9 -7 -16 -9 -16 -4 0 4 -11 -3
-24 -15 -13 -12 -37 -30 -54 -39 -74 -42 -143 -95 -156 -120 -8 -15 -26 -38
-40 -51 -14 -14 -26 -30 -26 -38 0 -7 -9 -18 -20 -25 -23 -15 -157 -279 -167
-330 -3 -18 -12 -42 -19 -53 -7 -11 -17 -90 -24 -180 -6 -88 -16 -168 -22
-178 -18 -34 -14 -197 6 -247 10 -25 22 -72 27 -105 5 -33 13 -87 19 -120 5
-33 12 -103 15 -156 3 -54 14 -123 25 -160 11 -35 28 -89 37 -119 10 -30 23
-62 30 -71 7 -8 13 -26 13 -40 1 -25 32 -125 44 -136 3 -3 6 -17 6 -29 0 -13
5 -26 10 -29 6 -3 10 -18 11 -33 0 -15 19 -62 42 -105 41 -78 43 -79 110 -107
38 -16 85 -41 104 -56 30 -23 47 -28 102 -29 51 -1 72 2 90 17 13 10 28 18 34
18 23 0 117 52 127 69 5 11 18 22 27 25 17 6 27 19 76 101 11 16 32 44 48 60
16 17 29 37 29 44 0 8 9 22 21 32 11 10 18 22 16 27 -3 4 5 27 19 51 13 24 24
53 24 65 0 12 6 30 14 41 7 11 16 36 19 55 3 19 11 49 18 65 28 68 48 131 49
151 0 12 7 27 16 35 9 7 13 21 10 34 -3 12 -1 48 4 81 17 98 23 247 22 489 -2
528 -10 590 -98 792 -8 17 -14 39 -14 50 0 21 -44 118 -62 137 -7 7 -26 29
-43 49 -23 29 -39 38 -75 43 -47 6 -126 32 -172 56 -30 16 -122 20 -180 9z
m181 -227 c12 -15 21 -30 21 -35 0 -5 11 -33 25 -64 20 -44 36 -62 80 -89 62
-40 72 -54 110 -153 25 -66 27 -77 17 -125 -11 -56 -1 -143 21 -187 15 -30 15
-327 -1 -461 -6 -52 -22 -129 -36 -170 -14 -41 -26 -92 -26 -115 0 -22 -10
-76 -21 -120 -12 -44 -24 -98 -26 -120 -3 -22 -9 -44 -13 -50 -7 -9 -24 -86
-20 -93 2 -4 -51 -102 -103 -189 -97 -162 -192 -213 -303 -163 -62 29 -92 81
-110 189 -16 102 -42 201 -95 368 -45 141 -70 322 -74 548 -3 161 -10 210 -36
283 -10 29 -19 61 -19 72 0 23 31 90 41 90 17 0 60 91 65 137 11 114 14 130
37 178 13 28 26 55 28 61 6 18 72 87 107 112 17 12 43 22 57 22 15 0 28 7 32
18 19 49 84 81 170 82 44 0 55 -4 72 -26z"/>
<path d="M10460 8529 c-75 -17 -90 -22 -90 -30 0 -5 -6 -9 -13 -9 -8 0 -20
-11 -27 -25 -7 -14 -33 -34 -57 -46 -23 -11 -43 -27 -43 -35 0 -9 -4 -13 -9
-10 -5 3 -44 -30 -87 -73 -69 -69 -81 -87 -97 -140 -10 -34 -30 -76 -48 -96
-36 -40 -102 -196 -130 -303 -19 -77 -27 -126 -34 -232 -2 -36 -9 -108 -15
-160 -13 -121 -12 -238 6 -420 18 -180 15 -165 46 -230 15 -31 38 -85 51 -121
30 -79 69 -156 94 -186 10 -12 34 -46 53 -75 55 -84 202 -223 252 -241 86 -30
193 -47 284 -44 74 2 96 -1 110 -15 11 -9 35 -19 54 -23 59 -11 143 62 159
138 9 40 -18 81 -71 108 -33 17 -46 18 -103 9 -60 -10 -66 -9 -86 11 -16 16
-31 20 -67 18 -26 -1 -55 2 -65 6 -9 4 -26 5 -37 2 -11 -3 -22 -1 -25 4 -3 4
-11 6 -18 3 -7 -2 -25 12 -41 31 -16 19 -35 35 -42 35 -7 0 -17 6 -21 13 -4 6
-20 18 -34 26 -22 11 -29 25 -40 75 -7 33 -11 67 -10 74 1 6 -3 12 -8 12 -14
0 -39 52 -34 68 3 8 -8 28 -23 45 -16 18 -39 52 -51 77 -49 102 -63 135 -63
149 0 9 -7 25 -15 35 -8 11 -15 29 -15 41 0 12 -4 25 -9 30 -5 6 -3 68 5 150
12 130 15 142 38 162 15 12 26 33 26 46 0 12 5 28 10 33 6 6 11 49 11 97 1 48
5 90 9 92 5 3 6 14 3 25 -3 11 0 42 7 68 28 110 35 132 42 132 4 0 8 9 8 19 0
11 5 23 10 26 6 3 10 18 10 31 0 26 41 91 97 153 17 19 38 46 45 60 7 14 21
35 31 45 9 11 17 23 17 27 0 15 65 72 97 85 20 9 77 15 152 16 106 1 121 -1
145 -19 21 -17 33 -19 61 -13 20 4 53 6 74 3 34 -5 41 -2 56 21 9 14 23 45 30
68 11 36 10 47 -2 69 -21 35 -94 79 -132 79 -18 0 -41 4 -51 10 -23 12 -120
18 -120 7 0 -4 -4 -6 -9 -2 -5 3 -12 1 -16 -4 -4 -7 -15 -6 -33 0 -15 6 -54
13 -87 15 -33 3 -64 6 -70 8 -5 1 -26 -1 -45 -5z"/>
<path d="M1732 8474 c-24 -11 -51 -82 -63 -166 -15 -101 -4 -176 35 -233 19
-28 26 -51 26 -86 0 -26 5 -51 10 -54 6 -4 8 -10 5 -15 -3 -5 -5 -53 -4 -107
5 -374 7 -496 13 -718 3 -137 8 -263 11 -280 3 -16 5 -131 4 -255 0 -124 0
-276 0 -338 0 -68 -4 -122 -11 -135 -13 -25 -12 -101 2 -127 16 -30 92 -67
157 -77 69 -11 81 -4 113 59 17 35 15 294 -4 488 -9 89 -26 366 -30 475 -2 63
1 96 11 110 7 11 13 25 13 33 0 14 52 133 76 172 8 14 26 48 39 76 14 29 37
63 52 75 35 30 93 103 93 118 0 6 13 17 30 26 16 8 47 39 69 69 36 48 56 67
131 125 14 11 39 31 56 45 18 14 36 26 42 26 5 0 12 7 15 15 6 13 63 44 96 51
8 1 17 6 20 11 10 13 69 53 80 53 5 0 17 7 25 15 8 9 45 27 82 40 37 13 74 31
83 39 9 8 30 18 46 22 17 3 39 14 50 24 26 23 140 49 190 43 33 -4 46 1 75 25
34 29 35 32 38 112 5 102 -12 142 -69 160 -42 14 -75 5 -138 -37 -19 -13 -40
-23 -48 -23 -7 0 -21 -4 -31 -9 -9 -5 -39 -18 -67 -30 -27 -12 -58 -26 -67
-32 -10 -5 -28 -9 -40 -9 -13 0 -48 -13 -78 -30 -30 -16 -61 -29 -68 -30 -12
0 -63 -32 -90 -57 -7 -7 -17 -13 -21 -13 -5 0 -20 -11 -35 -25 -15 -14 -30
-25 -34 -25 -4 0 -12 -10 -17 -22 -6 -12 -33 -38 -60 -58 -28 -19 -68 -52 -90
-73 -22 -21 -52 -40 -67 -44 -15 -3 -35 -14 -44 -24 -9 -11 -27 -19 -38 -19
-12 0 -37 -16 -56 -36 -19 -20 -51 -44 -71 -55 -20 -10 -58 -38 -85 -64 -27
-25 -52 -45 -56 -45 -5 0 -8 -8 -8 -17 0 -10 -4 -24 -8 -31 -5 -7 -7 54 -5
135 10 372 8 434 -15 494 -13 37 -17 60 -11 66 6 6 4 14 -6 23 -8 7 -15 19
-15 27 0 19 -69 117 -92 132 -21 13 -126 24 -146 15z"/>
<path d="M7415 8406 c-34 -21 -58 -25 -172 -31 -137 -6 -168 -12 -218 -39 -16
-9 -39 -16 -50 -16 -50 -1 -203 -99 -189 -121 3 -5 2 -8 -3 -7 -4 2 -40 -28
-78 -66 -39 -37 -114 -102 -167 -143 -54 -40 -98 -80 -98 -87 0 -8 -14 -26
-31 -40 -20 -17 -39 -50 -55 -94 -14 -37 -33 -85 -42 -107 -25 -54 -97 -386
-106 -485 -13 -138 -3 -300 20 -337 8 -12 14 -33 14 -45 0 -13 7 -36 15 -52 8
-15 15 -37 15 -47 0 -11 4 -19 8 -19 5 0 14 -19 21 -41 7 -23 21 -51 32 -62
10 -11 19 -26 19 -32 0 -6 12 -26 28 -43 15 -17 41 -54 57 -82 17 -28 43 -66
58 -83 15 -18 35 -44 44 -58 8 -15 29 -34 45 -44 16 -9 61 -43 99 -74 38 -31
87 -69 109 -86 22 -16 53 -40 68 -52 16 -12 48 -30 73 -39 24 -10 46 -21 49
-24 13 -17 202 -79 262 -85 39 -4 73 -13 79 -22 10 -12 89 -53 102 -53 2 0 17
11 32 24 31 27 33 32 42 117 5 52 3 60 -23 93 -25 31 -35 36 -69 36 -64 0
-138 34 -193 88 -38 39 -58 51 -93 57 -45 7 -61 15 -164 74 -56 32 -75 49 -77
68 -1 19 -60 81 -81 86 -12 4 -30 19 -40 36 -14 25 -43 62 -97 128 -6 7 -10
15 -10 18 0 8 -81 118 -92 126 -4 3 -26 42 -48 87 -36 74 -41 91 -44 174 -2
51 -5 93 -6 93 -8 0 -3 103 7 155 7 36 10 72 7 81 -6 23 19 116 47 169 13 24
26 70 30 103 6 54 11 63 68 122 34 35 61 68 61 74 0 5 29 24 65 42 63 31 105
72 119 116 7 21 52 64 120 114 37 27 133 43 201 34 17 -3 53 0 80 5 28 5 107
11 178 13 124 2 128 3 152 29 50 54 42 189 -15 243 -41 39 -110 43 -165 11z"/>
<path d="M4478 8405 c-27 -9 -60 -30 -79 -49 -30 -32 -35 -34 -84 -30 -38 2
-56 -1 -65 -11 -7 -8 -24 -15 -39 -15 -14 0 -39 -9 -56 -20 -16 -11 -44 -20
-62 -20 -17 0 -35 -4 -38 -10 -3 -5 -13 -10 -22 -10 -8 0 -24 -11 -35 -25 -11
-14 -24 -25 -30 -25 -14 0 -68 -59 -68 -76 0 -7 -15 -28 -33 -46 -34 -34 -67
-94 -67 -122 0 -9 -5 -16 -11 -16 -12 0 -42 -65 -46 -99 -1 -13 -7 -29 -13
-35 -5 -5 -10 -22 -10 -36 0 -14 -5 -31 -12 -38 -16 -16 -24 -237 -9 -246 14
-9 14 -56 1 -92 -19 -50 -28 -149 -18 -200 5 -27 11 -116 13 -199 3 -145 4
-153 41 -250 33 -89 57 -140 74 -155 9 -8 33 -64 37 -85 4 -20 69 -86 147
-149 21 -17 53 -43 70 -57 17 -15 51 -37 76 -50 25 -12 53 -29 63 -37 23 -20
46 -33 147 -83 47 -23 102 -53 123 -67 48 -32 125 -36 155 -9 18 17 42 85 42
121 0 22 -62 89 -104 111 -24 13 -40 31 -47 54 -20 59 -135 161 -182 161 -44
0 -131 32 -207 76 -67 39 -79 51 -98 94 -12 26 -26 51 -32 55 -5 3 -10 17 -10
30 0 13 -4 27 -10 30 -5 3 -10 14 -10 24 0 11 -9 38 -20 62 -13 30 -20 66 -20
110 0 69 -23 214 -41 260 -5 14 -11 79 -13 145 -4 145 9 216 69 359 6 17 22
56 35 87 12 32 29 63 37 69 8 7 24 31 35 53 39 79 159 166 210 153 10 -3 35
-1 55 4 21 5 63 12 93 15 30 4 64 11 75 17 50 26 191 -1 305 -58 71 -36 104
-67 113 -105 8 -34 46 -85 127 -171 65 -70 102 -132 94 -154 -3 -7 -6 -52 -7
-101 -2 -71 -6 -94 -22 -115 -18 -24 -26 -26 -75 -24 -49 2 -58 0 -87 -27 -29
-29 -33 -30 -78 -20 -25 5 -55 8 -66 5 -10 -3 -25 -1 -32 5 -6 5 -39 8 -72 6
-151 -9 -306 -11 -311 -3 -18 29 -120 -15 -168 -73 -32 -39 -33 -65 -2 -79 16
-7 24 -19 24 -36 0 -33 19 -44 60 -37 44 8 111 13 257 18 66 2 158 7 205 11
95 8 283 11 375 5 74 -4 122 17 130 58 4 15 12 50 20 77 17 63 27 162 28 291
1 96 0 102 -30 150 -17 27 -34 64 -38 82 -12 59 -32 92 -118 196 -42 51 -108
116 -118 116 -5 0 -27 20 -50 45 -22 24 -51 47 -62 51 -12 3 -48 33 -79 65
-41 43 -64 59 -83 59 -14 0 -45 9 -68 19 -60 27 -124 33 -179 16z"/>
</g>
</svg>
